<svg width="1584" height="1584" viewBox="0 0 1584 1584" fill="none" xmlns="http://www.w3.org/2000/svg">
<path fill-rule="evenodd" clip-rule="evenodd" d="M860.511 874.978V897.08H850.125V837.598H872.991C879.669 837.598 884.972 839.328 888.899 842.786C892.826 846.245 894.789 850.821 894.789 856.513C894.789 862.341 892.867 866.876 889.022 870.117C885.177 873.358 879.792 874.978 872.868 874.978H860.511ZM860.511 866.686H872.991C876.686 866.686 879.505 865.821 881.448 864.091C883.391 862.361 884.362 859.863 884.362 856.595C884.362 853.381 883.377 850.814 881.407 848.894C879.436 846.974 876.727 845.987 873.278 845.932H860.511V866.686ZM941.222 883.231H918.068L913.225 897.08H902.428L925.007 837.598H934.325L956.944 897.08H946.107L941.222 883.231ZM920.984 874.897H938.307L929.645 850.221L920.984 874.897ZM996.891 874.161H985.314V897.08H974.928V837.598H995.946C1002.84 837.598 1008.17 839.136 1011.92 842.214C1015.67 845.292 1017.54 849.745 1017.54 855.573C1017.54 859.55 1016.57 862.879 1014.65 865.562C1012.72 868.244 1010.03 870.308 1006.58 871.751L1020 896.549V897.08H1008.88L996.891 874.161ZM985.314 865.868H995.988C999.491 865.868 1002.23 864.989 1004.2 863.234C1006.17 861.477 1007.15 859.073 1007.15 856.022C1007.15 852.836 1006.24 850.372 1004.42 848.628C1002.6 846.885 999.887 845.987 996.275 845.932H985.314V865.868ZM1079.74 845.932H1061.1V897.08H1050.8V845.932H1032.32V837.598H1079.74V845.932ZM1146.2 897.08H1135.82L1109.17 854.878V897.08H1098.79V837.598H1109.17L1135.9 879.963V837.598H1146.2V897.08ZM1204.62 870.525H1180.07V888.827H1208.77V897.08H1169.69V837.598H1208.48V845.932H1180.07V862.355H1204.62V870.525ZM1250.4 874.161H1238.82V897.08H1228.43V837.598H1249.45C1256.35 837.598 1261.67 839.136 1265.42 842.214C1269.17 845.292 1271.05 849.745 1271.05 855.573C1271.05 859.55 1270.08 862.879 1268.15 865.562C1266.22 868.244 1263.53 870.308 1260.08 871.751L1273.51 896.549V897.08H1262.38L1250.4 874.161ZM1238.82 865.868H1249.49C1253 865.868 1255.73 864.989 1257.7 863.234C1259.67 861.477 1260.66 859.073 1260.66 856.022C1260.66 852.836 1259.75 850.372 1257.93 848.628C1256.11 846.885 1253.39 845.987 1249.78 845.932H1238.82V865.868ZM1323.35 881.76C1323.35 879.146 1322.42 877.13 1320.58 875.713C1318.73 874.297 1315.4 872.868 1310.58 871.424C1305.76 869.981 1301.94 868.374 1299.09 866.603C1293.64 863.199 1290.91 858.759 1290.91 853.286C1290.91 848.492 1292.88 844.543 1296.81 841.438C1300.74 838.333 1305.84 836.781 1312.1 836.781C1316.26 836.781 1319.97 837.544 1323.23 839.068C1326.48 840.594 1329.04 842.766 1330.9 845.585C1332.76 848.404 1333.7 851.529 1333.7 854.961H1323.35C1323.35 851.856 1322.37 849.425 1320.41 847.668C1318.46 845.911 1315.66 845.033 1312.02 845.033C1308.62 845.033 1305.99 845.754 1304.11 847.199C1302.24 848.642 1301.31 850.657 1301.31 853.245C1301.31 855.423 1302.32 857.242 1304.34 858.699C1306.36 860.156 1309.7 861.572 1314.36 862.947C1319.02 864.322 1322.75 865.889 1325.56 867.645C1328.38 869.402 1330.45 871.417 1331.76 873.692C1333.08 875.965 1333.74 878.628 1333.74 881.678C1333.74 886.635 1331.83 890.578 1328.01 893.505C1324.19 896.433 1319.02 897.897 1312.47 897.897C1308.15 897.897 1304.17 897.101 1300.54 895.507C1296.91 893.914 1294.1 891.715 1292.09 888.91C1290.07 886.104 1289.07 882.836 1289.07 879.104H1299.46C1299.46 882.482 1300.58 885.097 1302.82 886.948C1305.07 888.8 1308.29 889.727 1312.47 889.727C1316.08 889.727 1318.79 888.998 1320.62 887.541C1322.44 886.084 1323.35 884.156 1323.35 881.76Z" fill="white"/>
<path fill-rule="evenodd" clip-rule="evenodd" d="M289.636 758.28C288.785 756.106 287.933 747.989 287.933 743.208C287.933 717.407 305.674 695.083 352.222 695.083H376.63C376.63 695.083 371.128 697.549 359.032 706.677C346.94 715.81 289.636 758.28 289.636 758.28ZM481.22 738.861L569.213 670.883H525.501L459.367 722.623L441.868 710.887H400.329L438.077 739.438L408.846 764.658C393.94 777.557 373.059 795.589 342.119 795.589C329.916 795.589 312.623 792.779 302.973 781.903L445.604 670.883H359.319C306.525 670.883 279.56 702.042 279.56 740.6C279.56 748.571 281.263 758.568 283.247 763.208L224.07 807.998H269.341L296.732 786.835C306.664 799.446 327.819 811.182 350.22 811.301C387.121 811.622 420.422 786.552 432.262 776.975L459.084 755.237L529.05 807.998H577.985L481.22 738.861Z" fill="#FFCF01"/>
<path fill-rule="evenodd" clip-rule="evenodd" d="M1091.78 727.185C1089.37 712.602 1077.75 705.684 1066.85 705.684C1055.97 705.684 1044.59 712.854 1042.17 727.185H1091.78ZM1117.31 767.056C1114.17 774.962 1103.88 798.375 1067.34 798.375C1050.4 798.375 1037.57 793.429 1027.17 783.295C1015.55 772.171 1010.71 758.326 1010.71 741.52C1010.71 720.262 1019.18 707.167 1026.68 699.498C1039.03 687.14 1053.54 684.422 1066.13 684.422C1087.43 684.422 1099.77 693.074 1107.03 701.969C1118.17 715.567 1119.62 732.373 1119.62 743.991V746.461H1041.21C1041.21 752.895 1042.9 759.813 1046.29 764.507C1049.43 768.959 1055.97 774.642 1067.33 774.642C1078.47 774.642 1086.94 769.206 1091.78 760.549L1117.31 767.056ZM686.997 727.185C684.577 712.602 672.96 705.684 662.07 705.684C651.179 705.684 639.804 712.854 637.385 727.185H686.997ZM712.529 767.056C709.383 774.962 699.097 798.375 662.554 798.375C645.614 798.375 632.784 793.429 622.381 783.295C610.76 772.171 605.922 758.326 605.922 741.52C605.922 720.262 614.389 707.167 621.893 699.498C634.24 687.14 648.76 684.422 661.345 684.422C682.643 684.422 694.985 693.074 702.247 701.969C713.375 715.567 714.831 732.373 714.831 743.991V746.461H636.418C636.418 752.895 638.111 759.813 641.502 764.507C644.642 768.959 651.179 774.642 662.554 774.642C673.687 774.642 682.158 769.206 686.997 760.549L712.529 767.056ZM875.351 686.366H907.29V704.065C913.571 697.027 923.722 684.587 942.153 684.587C965.391 684.587 979.172 697.284 979.172 731.504V795.575H948.399V734.094C948.399 720.793 942.27 712.854 933.014 712.854C922.239 712.854 912.979 719.544 907.29 727.025V795.58H875.351V686.366ZM1257.94 783.825L1266.31 759.9C1278.16 768.515 1295.51 774.057 1305.71 774.057C1314.7 774.057 1318.77 770.771 1318.77 765.852V765.445C1318.77 758.673 1308.17 756.418 1296.12 752.73C1280.8 748.214 1263.45 741.035 1263.45 719.704V719.292C1263.45 696.936 1281.41 684.422 1303.47 684.422C1317.36 684.422 1329.68 687.364 1341.53 695.367L1335.18 718.674C1324.35 712.314 1310.82 708.421 1302.85 708.421C1295.3 708.421 1291.43 711.701 1291.43 716.011V716.423C1291.43 722.577 1301.83 725.441 1313.68 729.546C1328.99 734.675 1346.75 742.06 1346.75 762.16V762.572C1346.75 786.978 1328.58 798.055 1304.9 798.055C1289.58 798.055 1272.43 795.314 1257.94 783.825ZM1147.08 783.825L1155.44 759.9C1167.28 768.515 1184.64 774.057 1194.85 774.057C1203.83 774.057 1207.91 770.771 1207.91 765.852V765.445C1207.91 758.673 1197.3 756.418 1185.25 752.73C1169.94 748.209 1152.59 741.03 1152.59 719.704V719.292C1152.59 696.936 1170.56 684.422 1192.6 684.422C1206.49 684.422 1218.81 687.364 1230.65 695.367L1224.32 718.674C1213.49 712.314 1199.95 708.421 1191.99 708.421C1184.44 708.421 1180.55 711.701 1180.55 716.011V716.423C1180.55 722.577 1190.97 725.441 1202.8 729.546C1218.12 734.675 1235.88 742.06 1235.88 762.16V762.572C1235.88 786.978 1217.71 798.055 1194.03 798.05C1178.72 798.055 1161.57 795.314 1147.08 783.825ZM788.192 718.418L810.211 686.458H844.869L805.418 739.795L846.612 795.575H811.081L787.538 761.579L763.991 795.575H729.333L770.317 740.202L730.865 686.458H766.396L788.192 718.418Z" fill="white"/>
</svg>
