<svg width="176" height="40" viewBox="0 0 176 40" fill="none" xmlns="http://www.w3.org/2000/svg">
<path d="M106.751 17.0651C106.751 18.3403 106.333 19.3676 105.497 20.147C104.661 20.9263 103.407 21.3159 101.735 21.3159H98.7378V27.6497H97.25V12.793H101.735C103.392 12.793 104.639 13.1826 105.475 13.962C106.326 14.7413 106.751 15.7757 106.751 17.0651ZM101.735 20.0407C104.058 20.0407 105.22 19.0488 105.22 17.0651C105.22 16.0732 104.944 15.3222 104.391 14.8121C103.839 14.302 102.953 14.047 101.735 14.047H98.7378V20.0407H101.735Z" fill="#26292D"/>
<path d="M107.443 22.0417C107.443 20.8956 107.668 19.8927 108.118 19.0331C108.582 18.1598 109.217 17.4912 110.022 17.0273C110.841 16.5497 111.762 16.311 112.785 16.311C113.849 16.311 114.763 16.5566 115.527 17.0478C116.305 17.539 116.865 18.1666 117.206 18.9307V16.4747H118.638V27.6497H117.206V25.1732C116.851 25.9373 116.285 26.5718 115.507 27.0766C114.743 27.5679 113.829 27.8135 112.764 27.8135C111.755 27.8135 110.841 27.5747 110.022 27.0971C109.217 26.6195 108.582 25.9441 108.118 25.0709C107.668 24.1976 107.443 23.1879 107.443 22.0417ZM117.206 22.0622C117.206 21.1617 117.022 20.3703 116.653 19.688C116.285 19.0058 115.78 18.4805 115.139 18.1121C114.511 17.7436 113.815 17.5594 113.051 17.5594C112.26 17.5594 111.55 17.7368 110.922 18.0916C110.295 18.4464 109.797 18.9649 109.428 19.6471C109.074 20.3157 108.896 21.1139 108.896 22.0417C108.896 22.9559 109.074 23.761 109.428 24.4569C109.797 25.1391 110.295 25.6644 110.922 26.0328C111.55 26.3876 112.26 26.565 113.051 26.565C113.815 26.565 114.511 26.3808 115.139 26.0124C115.78 25.6439 116.285 25.1186 116.653 24.4364C117.022 23.7542 117.206 22.9628 117.206 22.0622Z" fill="#26292D"/>
<path d="M122.352 18.46C122.666 17.7641 123.144 17.2251 123.785 16.8431C124.44 16.461 125.238 16.27 126.18 16.27V17.7641H125.791C124.754 17.7641 123.921 18.0438 123.294 18.6033C122.666 19.1627 122.352 20.0974 122.352 21.4073V27.6497H120.919V16.4747H122.352V18.46Z" fill="#26292D"/>
<path d="M130.368 17.6822V24.6206C130.368 25.3028 130.498 25.7736 130.757 26.0328C131.016 26.2921 131.474 26.4217 132.129 26.4217H133.438V27.6497H131.903C130.894 27.6497 130.143 27.4178 129.652 26.9538C129.161 26.4763 128.915 25.6985 128.915 24.6206V17.6822H127.36V16.4747H128.915V13.6707H130.368V16.4747H133.438V17.6822H130.368Z" fill="#26292D"/>
<path d="M140.631 16.27C141.969 16.27 143.06 16.6862 143.906 17.5185C144.752 18.3372 145.175 19.5311 145.175 21.1003V27.6497H143.763V21.264C143.763 20.0496 143.456 19.1218 142.842 18.4805C142.242 17.8392 141.416 17.5185 140.365 17.5185C139.287 17.5185 138.428 17.8596 137.787 18.5419C137.145 19.2241 136.825 20.227 136.825 21.5505V27.6497H135.392V16.4747H136.825V18.3781C137.179 17.6959 137.691 17.1774 138.36 16.8226C139.028 16.4542 139.786 16.27 140.631 16.27Z" fill="#26292D"/>
<path d="M158.045 21.4891C158.045 21.9803 158.032 22.3556 158.004 22.6148H148.733C148.774 23.4608 148.978 24.184 149.347 24.7843C149.715 25.3847 150.199 25.8418 150.8 26.1556C151.4 26.4558 152.055 26.6059 152.765 26.6059C153.692 26.6059 154.47 26.3808 155.098 25.9305C155.739 25.4802 156.162 24.873 156.367 24.1089H157.881C157.609 25.2005 157.022 26.0942 156.121 26.7901C155.234 27.4723 154.115 27.8135 152.765 27.8135C151.714 27.8135 150.773 27.5815 149.94 27.1176C149.108 26.64 148.453 25.9714 147.975 25.1118C147.511 24.2385 147.279 23.222 147.279 22.0622C147.279 20.9024 147.511 19.8859 147.975 19.0126C148.439 18.1393 149.087 17.4708 149.92 17.0068C150.752 16.5429 151.7 16.311 152.765 16.311C153.829 16.311 154.757 16.5429 155.548 17.0068C156.353 17.4708 156.967 18.0984 157.39 18.8898C157.827 19.6676 158.045 20.534 158.045 21.4891ZM156.592 21.4482C156.606 20.6159 156.435 19.9063 156.08 19.3196C155.739 18.7329 155.268 18.2894 154.668 17.9893C154.068 17.6891 153.413 17.539 152.703 17.539C151.639 17.539 150.732 17.8801 149.981 18.5623C149.231 19.2446 148.814 20.2065 148.733 21.4482H156.592Z" fill="#26292D"/>
<path d="M161.69 18.46C162.004 17.7641 162.481 17.2251 163.122 16.8431C163.777 16.461 164.576 16.27 165.517 16.27V17.7641H165.128C164.091 17.7641 163.259 18.0438 162.631 18.6033C162.004 19.1627 161.69 20.0974 161.69 21.4073V27.6497H160.257V16.4747H161.69V18.46Z" fill="#26292D"/>
<path d="M171.111 27.8135C169.828 27.8135 168.778 27.5201 167.959 26.9334C167.154 26.333 166.704 25.5211 166.608 24.4978H168.082C168.15 25.1254 168.443 25.6371 168.962 26.0328C169.494 26.4149 170.203 26.6059 171.09 26.6059C171.868 26.6059 172.475 26.4217 172.912 26.0533C173.362 25.6849 173.587 25.2278 173.587 24.682C173.587 24.2999 173.465 23.9861 173.219 23.7405C172.973 23.4949 172.66 23.3039 172.277 23.1674C171.909 23.0173 171.404 22.8604 170.763 22.6967C169.931 22.4784 169.255 22.2601 168.737 22.0417C168.218 21.8234 167.775 21.5028 167.406 21.0798C167.052 20.6432 166.874 20.0633 166.874 19.3401C166.874 18.7943 167.038 18.2894 167.365 17.8255C167.693 17.3616 168.157 16.9932 168.757 16.7203C169.357 16.4474 170.04 16.311 170.804 16.311C172.005 16.311 172.973 16.618 173.71 17.232C174.447 17.8323 174.843 18.6647 174.897 19.729H173.465C173.424 19.074 173.164 18.5487 172.687 18.153C172.223 17.7436 171.582 17.539 170.763 17.539C170.04 17.539 169.453 17.7095 169.003 18.0507C168.552 18.3918 168.327 18.8148 168.327 19.3196C168.327 19.7562 168.457 20.1178 168.716 20.4044C168.989 20.6773 169.323 20.8956 169.719 21.0593C170.115 21.2094 170.647 21.38 171.316 21.571C172.121 21.7893 172.762 22.0008 173.239 22.2055C173.717 22.4101 174.126 22.7103 174.467 23.106C174.809 23.5017 174.986 24.027 175 24.682C175 25.2824 174.836 25.8213 174.508 26.2989C174.181 26.7628 173.724 27.1312 173.137 27.4041C172.55 27.677 171.875 27.8135 171.111 27.8135Z" fill="#26292D"/>
<g clip-path="url(#clip0_2273_28442)">
<path d="M4.73748 21.8949C4.8816 22.4189 5.10736 22.902 5.41477 23.3452C5.72217 23.7884 6.08289 24.1716 6.4986 24.4974C6.9143 24.8223 7.37915 25.0755 7.89483 25.2563C8.40967 25.4371 8.947 25.5271 9.50766 25.5271C10.3566 25.5271 11.0972 25.3504 11.7303 24.9989C12.3626 24.6465 12.8691 24.245 13.2482 23.7926H16.3114C16.0223 24.4074 15.6474 24.9764 15.1867 25.5004C14.726 26.0244 14.202 26.4809 13.6147 26.8691C13.0274 27.2582 12.3859 27.5606 11.6903 27.7772C10.9947 27.9938 10.2674 28.1021 9.50849 28.1021C8.47881 28.1021 7.50661 27.903 6.5944 27.5056C5.68135 27.1082 4.8866 26.5709 4.20931 25.8928C3.53202 25.2155 2.99386 24.4199 2.59648 23.5077C2.19827 22.5955 2 21.6241 2 20.5936C2 19.5631 2.19827 18.5926 2.59648 17.6795C2.99386 16.7673 3.53119 15.9717 4.20931 15.2944C4.8866 14.6171 5.68218 14.0798 6.5944 13.6816C7.50661 13.285 8.47798 13.0859 9.50766 13.0859C10.5373 13.0859 11.5087 13.285 12.4217 13.6824C13.334 14.0798 14.1295 14.6171 14.8068 15.2952C15.4841 15.9734 16.0223 16.7681 16.4197 17.6803C16.817 18.5934 17.0161 19.5639 17.0161 20.5944C17.0161 20.8294 17.007 21.0551 16.9887 21.2717C16.9703 21.4883 16.9437 21.6966 16.907 21.8949H4.73748ZM14.2787 19.3198C14.1337 18.7958 13.9129 18.3076 13.6147 17.8561C13.3165 17.4046 12.9549 17.0155 12.5309 16.6906C12.106 16.3657 11.6403 16.1125 11.1346 15.9317C10.629 15.7509 10.0866 15.661 9.50849 15.661C8.93034 15.661 8.4105 15.7559 7.89566 15.9459C7.38082 16.1358 6.91097 16.3932 6.4861 16.7181C6.06123 17.043 5.69968 17.4279 5.40227 17.8703C5.10403 18.3135 4.88243 18.7967 4.73831 19.3207H14.2795L14.2787 19.3198Z" fill="#26292D"/>
<path d="M17.4756 14.8745L19.3192 13.0859L24.7941 18.7508L30.2691 13.0859L32.1118 14.8745L26.5827 20.5936L32.1118 26.3126L30.2691 28.1012L24.7941 22.4364L19.3192 28.1012L17.4764 26.3126L23.0055 20.5936L17.4756 14.8745Z" fill="#26292D"/>
<path d="M33.7119 20.2145C33.7119 19.239 33.8969 18.3168 34.2676 17.4496C34.6375 16.5823 35.1481 15.8234 35.7988 15.1728C36.4494 14.5222 37.2083 14.0123 38.0756 13.6416C38.9428 13.2717 39.8642 13.0859 40.8405 13.0859C41.8169 13.0859 42.7374 13.2717 43.6055 13.6416C44.4727 14.0123 45.2316 14.5222 45.8823 15.1728C46.5329 15.8234 47.0428 16.5823 47.4135 17.4496C47.7834 18.3168 47.9691 19.2382 47.9691 20.2145V27.6681H45.15V20.0788C45.15 19.4823 45.0367 18.9224 44.8109 18.3984C44.5852 17.8744 44.2778 17.4188 43.8896 17.0297C43.5005 16.6415 43.0448 16.3341 42.5208 16.1083C41.9968 15.8826 41.437 15.7693 40.8405 15.7693C40.244 15.7693 39.6842 15.8826 39.1602 16.1083C38.6362 16.3341 38.1797 16.6415 37.7915 17.0297C37.4024 17.4188 37.0959 17.8744 36.8701 18.3984C36.6443 18.9224 36.531 19.4823 36.531 20.0788V27.6681H33.7119V20.2145Z" fill="#26292D"/>
<path d="M52.6574 21.8957C52.8015 22.4197 53.0273 22.9029 53.3347 23.3461C53.6421 23.7893 54.0028 24.1725 54.4185 24.4982C54.8342 24.8231 55.2991 25.0764 55.8147 25.2571C56.3296 25.4379 56.8669 25.5279 57.4276 25.5279C58.2765 25.5279 59.0171 25.3513 59.6502 24.9997C60.2825 24.6473 60.789 24.2458 61.1681 23.7934H64.2313C63.9422 24.4082 63.5673 24.9772 63.1066 25.5012C62.646 26.0252 62.1219 26.4818 61.5346 26.87C60.9473 27.259 60.3058 27.5614 59.6102 27.778C58.9146 27.9946 58.1873 28.1029 57.4284 28.1029C56.3987 28.1029 55.4265 27.9038 54.5143 27.5064C53.6013 27.1091 52.8065 26.5717 52.1292 25.8936C51.4519 25.2163 50.9138 24.4207 50.5164 23.5085C50.119 22.5963 49.9199 21.6249 49.9199 20.5944C49.9199 19.5639 50.1182 18.5934 50.5164 17.6803C50.9138 16.7681 51.4511 15.9725 52.1292 15.2952C52.8065 14.618 53.6021 14.0806 54.5143 13.6824C55.4265 13.285 56.3979 13.0859 57.4284 13.0859C58.4589 13.0859 59.4295 13.285 60.3425 13.6824C61.2547 14.0798 62.0503 14.6171 62.7276 15.2952C63.4049 15.9734 63.943 16.7681 64.3404 17.6803C64.7378 18.5934 64.9369 19.5639 64.9369 20.5944C64.9369 20.8294 64.9277 21.0551 64.9094 21.2717C64.8911 21.4883 64.8644 21.6966 64.8278 21.8949H52.6574V21.8957ZM62.1986 19.3207C62.0536 18.7967 61.8329 18.3085 61.5346 17.8569C61.2364 17.4054 60.8748 17.0164 60.4508 16.6915C60.0259 16.3666 59.5602 16.1133 59.0546 15.9325C58.5489 15.7518 58.0066 15.6618 57.4284 15.6618C56.8503 15.6618 56.3304 15.7568 55.8156 15.9467C55.3007 16.1367 54.8309 16.3941 54.406 16.719C53.9812 17.0439 53.6196 17.4287 53.3222 17.8711C53.024 18.3143 52.8024 18.7975 52.6582 19.3215H62.1994L62.1986 19.3207Z" fill="#26292D"/>
<path d="M72.8507 28.1012C71.2062 28.1012 69.7833 27.7172 68.5821 26.9491C67.3799 26.181 66.536 25.1288 66.0479 23.7918H69.0561C69.436 24.3699 69.9641 24.8173 70.6414 25.1338C71.3187 25.4504 72.046 25.6079 72.8232 25.6079C73.7629 25.6079 74.4902 25.4412 75.0051 25.1064C75.5199 24.7723 75.7773 24.3158 75.7773 23.7376C75.7773 23.2678 75.5915 22.907 75.2217 22.6538C74.8509 22.4005 74.232 22.1931 73.3647 22.0306L71.2504 21.6241C69.5876 21.3167 68.3771 20.8294 67.6182 20.1604C66.8593 19.4923 66.4794 18.5884 66.4794 17.4496C66.4794 16.8173 66.6193 16.2341 66.8993 15.701C67.1792 15.1678 67.5674 14.7071 68.0647 14.3189C68.5612 13.9307 69.1527 13.6274 69.84 13.4108C70.5265 13.1942 71.2854 13.0859 72.1168 13.0859C73.6521 13.0859 74.9809 13.4517 76.1014 14.1839C77.2219 14.9154 78.0074 15.9325 78.4598 17.233H75.4516C75.1442 16.709 74.6968 16.3024 74.1095 16.0134C73.5222 15.7243 72.8666 15.5793 72.1443 15.5793C71.2771 15.5793 70.6039 15.7376 70.1249 16.0533C69.6459 16.3699 69.4068 16.8173 69.4068 17.3946C69.4068 17.8103 69.5917 18.1444 69.9625 18.3976C70.3323 18.6509 70.9422 18.8583 71.7919 19.0208L73.9062 19.4273C75.5499 19.7347 76.7612 20.2362 77.5384 20.9318C78.3149 21.6274 78.7039 22.5447 78.7039 23.6826C78.7039 24.3333 78.5589 24.9256 78.2699 25.4579C77.9808 25.9911 77.5784 26.4568 77.0636 26.8541C76.5487 27.2515 75.9298 27.5589 75.2067 27.7755C74.4836 27.9921 73.698 28.1004 72.8482 28.1004L72.8507 28.1012Z" fill="#26292D"/>
<path d="M86.674 28.1012C85.0295 28.1012 83.6066 27.7172 82.4053 26.9491C81.2032 26.181 80.3593 25.1288 79.8711 23.7918H82.8793C83.2592 24.3699 83.7874 24.8173 84.4647 25.1338C85.1419 25.4504 85.8692 25.6079 86.6465 25.6079C87.5862 25.6079 88.3135 25.4412 88.8283 25.1064C89.3431 24.7723 89.6006 24.3158 89.6006 23.7376C89.6006 23.2678 89.4148 22.907 89.0449 22.6538C88.6742 22.4005 88.0552 22.1931 87.188 22.0306L85.0736 21.6241C83.4108 21.3167 82.2004 20.8294 81.4414 20.1604C80.6825 19.4923 80.3026 18.5884 80.3026 17.4496C80.3026 16.8173 80.4426 16.2341 80.7225 15.701C81.0024 15.1678 81.3906 14.7071 81.888 14.3189C82.3845 13.9307 82.976 13.6274 83.6632 13.4108C84.3497 13.1942 85.1086 13.0859 85.94 13.0859C87.4754 13.0859 88.8041 13.4517 89.9246 14.1839C91.0451 14.9154 91.8307 15.9325 92.283 17.233H89.2748C88.9674 16.709 88.5201 16.3024 87.9327 16.0134C87.3454 15.7243 86.6898 15.5793 85.9675 15.5793C85.1003 15.5793 84.4272 15.7376 83.9482 16.0533C83.4691 16.3699 83.23 16.8173 83.23 17.3946C83.23 17.8103 83.415 18.1444 83.7857 18.3976C84.1556 18.6509 84.7654 18.8583 85.6151 19.0208L87.7295 19.4273C89.3731 19.7347 90.5844 20.2362 91.3617 20.9318C92.1381 21.6274 92.5271 22.5447 92.5271 23.6826C92.5271 24.3333 92.3822 24.9256 92.0931 25.4579C91.804 25.9911 91.4017 26.4568 90.8868 26.8541C90.372 27.2515 89.753 27.5589 89.0299 27.7755C88.3068 27.9921 87.5212 28.1004 86.6715 28.1004L86.674 28.1012Z" fill="#26292D"/>
</g>
<defs>
<clipPath id="clip0_2273_28442">
<rect width="90.5276" height="15.0161" fill="white" transform="translate(2 13.0859)"/>
</clipPath>
</defs>
</svg>
