<svg width="85" height="49" viewBox="0 0 85 49" fill="none" xmlns="http://www.w3.org/2000/svg">
<path d="M3.49923 16.043C3.63081 16.5214 3.83692 16.9625 4.11757 17.3672C4.39822 17.7718 4.72754 18.1216 5.10707 18.419C5.48659 18.7156 5.91099 18.9469 6.38178 19.1119C6.85181 19.2769 7.34238 19.3591 7.85424 19.3591C8.62926 19.3591 9.3054 19.1978 9.88343 18.8769C10.4607 18.5552 10.9231 18.1886 11.2692 17.7756H14.0658C13.8019 18.3369 13.4596 18.8564 13.039 19.3347C12.6184 19.8131 12.14 20.2299 11.6038 20.5844C11.0676 20.9395 10.482 21.2156 9.84693 21.4134C9.21185 21.6111 8.54788 21.71 7.855 21.71C6.91494 21.71 6.02736 21.5282 5.19453 21.1654C4.36095 20.8026 3.63537 20.3121 3.01703 19.693C2.39869 19.0746 1.90736 18.3483 1.54457 17.5155C1.18178 16.6826 1 15.7958 1 14.855C1 13.9149 1.18102 13.0281 1.54457 12.1945C1.90736 11.3617 2.39793 10.6354 3.01703 10.017C3.63537 9.39869 4.36171 8.90812 5.19453 8.54457C6.02736 8.18178 6.91418 8 7.855 8C8.79506 8 9.68188 8.18178 10.5155 8.54457C11.3483 8.90736 12.0746 9.39793 12.693 10.017C13.3113 10.6354 13.8026 11.3617 14.1654 12.1945C14.5282 13.0281 14.71 13.9142 14.71 14.855C14.71 15.0695 14.7016 15.2756 14.6849 15.4733C14.6682 15.6711 14.6438 15.8612 14.6104 16.0422H3.49923V16.043ZM12.2093 13.6921C12.0769 13.2137 11.8754 12.768 11.6031 12.3558C11.3308 11.9435 11.0007 11.5884 10.6136 11.2917C10.2257 10.9951 9.80053 10.7639 9.33887 10.5989C8.8772 10.4338 8.38207 10.3517 7.85424 10.3517C7.34238 10.3517 6.85181 10.4384 6.38178 10.6118C5.91175 10.7852 5.48279 11.0202 5.0949 11.3168C4.70701 11.6135 4.37692 11.9648 4.1054 12.3687C3.83312 12.7733 3.63081 13.2145 3.49923 13.6928H12.2093V13.6921Z" fill="#070D1B"/>
<path d="M15.129 9.63368L16.8114 8.00074L21.8098 13.1726L26.8083 8.00074L28.4907 9.63368L23.4435 14.855L28.4914 20.0763L26.809 21.7092L21.8106 16.5374L16.8121 21.7092L15.1298 20.0763L20.1769 14.855L15.129 9.63368Z" fill="#070D1B"/>
<path d="M29.9518 14.5082C29.9518 13.6176 30.1206 12.7756 30.459 11.9839C30.7967 11.1921 31.263 10.4992 31.857 9.90522C32.451 9.31122 33.1439 8.84575 33.9356 8.5073C34.7274 8.16961 35.5685 8 36.4599 8C37.3513 8 38.1917 8.16961 38.9843 8.5073C39.776 8.84575 40.4689 9.31122 41.0629 9.90522C41.6569 10.4992 42.1224 11.1921 42.4608 11.9839C42.7985 12.7756 42.9681 13.6168 42.9681 14.5082V21.313H40.3944V14.3842C40.3944 13.8396 40.2909 13.3285 40.0848 12.8501C39.8787 12.3717 39.598 11.9557 39.2436 11.6005C38.8884 11.2461 38.4724 10.9655 37.994 10.7593C37.5156 10.5532 37.0045 10.4498 36.4599 10.4498C35.9154 10.4498 35.4043 10.5532 34.9259 10.7593C34.4475 10.9655 34.0307 11.2461 33.6763 11.6005C33.3211 11.9557 33.0412 12.3717 32.8351 12.8501C32.6289 13.3285 32.5255 13.8396 32.5255 14.3842V21.313H29.9518V14.5082Z" fill="#070D1B"/>
<path d="M47.2487 16.043C47.3803 16.5214 47.5864 16.9625 47.8671 17.3672C48.1477 17.7718 48.477 18.1216 48.8566 18.419C49.2361 18.7156 49.6605 18.9469 50.1313 19.1119C50.6013 19.2769 51.0919 19.3591 51.6037 19.3591C52.3787 19.3591 53.0549 19.1978 53.6329 18.8769C54.2102 18.5552 54.6726 18.1886 55.0187 17.7756H57.8153C57.5514 18.3369 57.2091 18.8564 56.7885 19.3347C56.3679 19.8131 55.8895 20.2299 55.3533 20.5844C54.8171 20.9395 54.2315 21.2156 53.5964 21.4134C52.9613 21.6111 52.2974 21.71 51.6045 21.71C50.6644 21.71 49.7768 21.5282 48.944 21.1654C48.1104 20.8026 47.3849 20.3121 46.7665 19.693C46.1482 19.0746 45.6568 18.3483 45.2941 17.5155C44.9313 16.6826 44.7495 15.7958 44.7495 14.855C44.7495 13.9149 44.9305 13.0281 45.2941 12.1945C45.6568 11.3617 46.1474 10.6354 46.7665 10.017C47.3849 9.39869 48.1112 8.90812 48.944 8.54457C49.7768 8.18178 50.6637 8 51.6045 8C52.5446 8 53.4314 8.18178 54.265 8.54457C55.0978 8.90736 55.8241 9.39793 56.4425 10.017C57.0608 10.6354 57.5521 11.3617 57.9149 12.1945C58.2777 13.0281 58.4595 13.9142 58.4595 14.855C58.4595 15.0695 58.4511 15.2756 58.4344 15.4733C58.4177 15.6711 58.3933 15.8612 58.3599 16.0422H47.2487V16.043ZM55.9587 13.6921C55.8264 13.2137 55.6249 12.768 55.3526 12.3558C55.0803 11.9435 54.7502 11.5884 54.3631 11.2917C53.9752 10.9951 53.55 10.7639 53.0884 10.5989C52.6267 10.4338 52.1316 10.3517 51.6037 10.3517C51.0919 10.3517 50.6013 10.4384 50.1313 10.6118C49.6612 10.7852 49.2323 11.0202 48.8444 11.3168C48.4565 11.6135 48.1264 11.9648 47.8549 12.3687C47.5826 12.7733 47.3803 13.2145 47.2487 13.6928H55.9587V13.6921Z" fill="#070D1B"/>
<path d="M65.6834 21.7092C64.182 21.7092 62.883 21.3586 61.7862 20.6574C60.6887 19.9561 59.9183 18.9955 59.4726 17.7748H62.219C62.5658 18.3026 63.048 18.7111 63.6663 19.0001C64.2847 19.2891 64.9487 19.4328 65.6583 19.4328C66.5162 19.4328 67.1802 19.2807 67.6502 18.975C68.1202 18.67 68.3552 18.2532 68.3552 17.7254C68.3552 17.2964 68.1856 16.9671 67.848 16.7359C67.5095 16.5047 66.9444 16.3153 66.1526 16.167L64.2223 15.7958C62.7042 15.5152 61.5991 15.0702 60.9062 14.4595C60.2134 13.8495 59.8665 13.0243 59.8665 11.9846C59.8665 11.4073 59.9943 10.8749 60.2499 10.3882C60.5054 9.9014 60.8598 9.48081 61.3139 9.12638C61.7672 8.77196 62.3072 8.49511 62.9347 8.29736C63.5614 8.09962 64.2543 8.00074 65.0133 8.00074C66.415 8.00074 67.6281 8.33463 68.6511 9.00317C69.6741 9.67095 70.3913 10.5996 70.8043 11.7869H68.0579C67.7772 11.3085 67.3688 10.9373 66.8326 10.6734C66.2964 10.4095 65.6978 10.2771 65.0384 10.2771C64.2467 10.2771 63.6321 10.4216 63.1948 10.7099C62.7575 10.9989 62.5392 11.4073 62.5392 11.9344C62.5392 12.3139 62.708 12.6189 63.0465 12.8501C63.3842 13.0813 63.9409 13.2707 64.7167 13.419L66.647 13.7902C68.1476 14.0708 69.2535 14.5287 69.9631 15.1638C70.6719 15.7988 71.0271 16.6362 71.0271 17.6752C71.0271 18.2692 70.8948 18.8099 70.6309 19.2959C70.367 19.7827 69.9996 20.2079 69.5296 20.5707C69.0595 20.9334 68.4944 21.2141 67.8343 21.4118C67.1764 21.6103 66.4592 21.7092 65.6834 21.7092Z" fill="#070D1B"/>
<path d="M78.3034 21.7092C76.802 21.7092 75.503 21.3586 74.4062 20.6574C73.3087 19.9561 72.5383 18.9955 72.0926 17.7748H74.839C75.1858 18.3026 75.668 18.7111 76.2863 19.0001C76.9047 19.2891 77.5687 19.4328 78.2783 19.4328C79.1362 19.4328 79.8002 19.2807 80.2702 18.975C80.7402 18.67 80.9753 18.2532 80.9753 17.7254C80.9753 17.2964 80.8056 16.9671 80.4679 16.7359C80.1295 16.5047 79.5644 16.3153 78.7727 16.167L76.8423 15.7958C75.3242 15.5152 74.2191 15.0702 73.5262 14.4595C72.8334 13.8495 72.4865 13.0243 72.4865 11.9846C72.4865 11.4073 72.6143 10.8749 72.8699 10.3882C73.1254 9.9014 73.4799 9.48081 73.9339 9.12638C74.3872 8.77196 74.9272 8.49511 75.5547 8.29736C76.1814 8.09962 76.8743 8.00074 77.6333 8.00074C79.035 8.00074 80.2482 8.33463 81.2711 9.00317C82.2941 9.67095 83.0113 10.5996 83.4243 11.7869H80.6779C80.3972 11.3085 79.9888 10.9373 79.4526 10.6734C78.9164 10.4095 78.3178 10.2771 77.6584 10.2771C76.8667 10.2771 76.2521 10.4216 75.8148 10.7099C75.3775 10.9989 75.1592 11.4073 75.1592 11.9344C75.1592 12.3139 75.328 12.6189 75.6665 12.8501C76.0042 13.0813 76.5609 13.2707 77.3367 13.419L79.267 13.7902C80.7676 14.0708 81.8735 14.5287 82.5831 15.1638C83.2919 15.7988 83.6471 16.6362 83.6471 17.6752C83.6471 18.2692 83.5148 18.8099 83.2509 19.2959C82.987 19.7827 82.6196 20.2079 82.1496 20.5707C81.6795 20.9334 81.1144 21.2141 80.4543 21.4118C79.7964 21.6103 79.0791 21.7092 78.3034 21.7092Z" fill="#070D1B"/>
<path d="M10.3162 30.6514C10.3162 31.8259 9.93119 32.7721 9.16123 33.4898C8.39127 34.2076 7.23633 34.5665 5.69641 34.5665H2.93629V40.3999H1.56602V26.7168H5.69641C7.22328 26.7168 8.3717 27.0757 9.14166 27.7934C9.92467 28.5112 10.3162 29.4638 10.3162 30.6514ZM5.69641 33.392C7.83664 33.392 8.90675 32.4784 8.90675 30.6514C8.90675 29.7379 8.65227 29.0462 8.14332 28.5764C7.63436 28.1066 6.81872 27.8717 5.69641 27.8717H2.93629V33.392H5.69641ZM11.5974 35.0363C11.5974 33.9401 11.8128 32.9809 12.2434 32.1587C12.6871 31.3235 13.294 30.684 14.0639 30.2403C14.8469 29.7836 15.7278 29.5552 16.7066 29.5552C17.7245 29.5552 18.5989 29.7901 19.3297 30.2599C20.0735 30.7297 20.6086 31.33 20.9348 32.0608V29.7118H22.3051V40.3999H20.9348V38.0313C20.5955 38.7621 20.054 39.3689 19.3101 39.8518C18.5793 40.3216 17.7049 40.5565 16.687 40.5565C15.7213 40.5565 14.8469 40.3281 14.0639 39.8714C13.294 39.4146 12.6871 38.7686 12.2434 37.9334C11.8128 37.0982 11.5974 36.1325 11.5974 35.0363ZM20.9348 35.0559C20.9348 34.1945 20.7587 33.4376 20.4063 32.7851C20.054 32.1326 19.5711 31.6302 18.9577 31.2778C18.3574 30.9255 17.6919 30.7493 16.9611 30.7493C16.2042 30.7493 15.5255 30.9189 14.9252 31.2582C14.3249 31.5976 13.8486 32.0935 13.4962 32.746C13.1569 33.3854 12.9873 34.1489 12.9873 35.0363C12.9873 35.9106 13.1569 36.6806 13.4962 37.3462C13.8486 37.9987 14.3249 38.5011 14.9252 38.8535C15.5255 39.1928 16.2042 39.3624 16.9611 39.3624C17.6919 39.3624 18.3574 39.1862 18.9577 38.8339C19.5711 38.4815 20.054 37.9791 20.4063 37.3266C20.7587 36.6741 20.9348 35.9172 20.9348 35.0559ZM26.4121 31.6106C26.7123 30.945 27.169 30.4296 27.7824 30.0642C28.4088 29.6987 29.1722 29.516 30.0727 29.516V30.945H29.7007C28.7089 30.945 27.9129 31.2126 27.3126 31.7476C26.7123 32.2827 26.4121 33.1766 26.4121 34.4294V40.3999H25.0418V29.7118H26.4121V31.6106ZM33.5239 30.8667V37.5028C33.5239 38.1553 33.6479 38.6055 33.8958 38.8535C34.1438 39.1014 34.581 39.2254 35.2074 39.2254H36.4602V40.3999H34.992C34.0263 40.3999 33.3086 40.178 32.8388 39.7343C32.369 39.2776 32.134 38.5337 32.134 37.5028V30.8667H30.6463V29.7118H32.134V27.03H33.5239V29.7118H36.4602V30.8667H33.5239ZM43.3398 29.516C44.6187 29.516 45.6628 29.9141 46.4719 30.7101C47.281 31.4931 47.6855 32.635 47.6855 34.1358V40.3999H46.3348V34.2924C46.3348 33.1309 46.0412 32.2435 45.454 31.6302C44.8797 31.0168 44.0902 30.7101 43.0853 30.7101C42.0544 30.7101 41.2322 31.0364 40.6189 31.6889C40.0055 32.3414 39.6988 33.3006 39.6988 34.5665V40.3999H38.3286V29.7118H39.6988V31.5323C40.0381 30.8798 40.5275 30.3839 41.167 30.0446C41.8064 29.6922 42.5307 29.516 43.3398 29.516ZM59.9947 34.5077C59.9947 34.9775 59.9817 35.3364 59.9556 35.5844H51.088C51.1271 36.3935 51.3229 37.0852 51.6752 37.6594C52.0276 38.2336 52.4909 38.6708 53.0651 38.9709C53.6393 39.258 54.2657 39.4016 54.9443 39.4016C55.8317 39.4016 56.5756 39.1862 57.1759 38.7556C57.7892 38.3249 58.1938 37.7442 58.3895 37.0134H59.8381C59.5771 38.0574 59.016 38.9122 58.1546 39.5777C57.3064 40.2302 56.2363 40.5565 54.9443 40.5565C53.9394 40.5565 53.039 40.3347 52.2429 39.8909C51.4468 39.4342 50.8204 38.7947 50.3637 37.9726C49.92 37.1374 49.6981 36.1651 49.6981 35.0559C49.6981 33.9466 49.92 32.9743 50.3637 32.1391C50.8074 31.3039 51.4273 30.6645 52.2233 30.2208C53.0194 29.777 53.9264 29.5552 54.9443 29.5552C55.9622 29.5552 56.8496 29.777 57.6065 30.2208C58.3765 30.6645 58.9638 31.2648 59.3683 32.0217C59.7859 32.7655 59.9947 33.5942 59.9947 34.5077ZM58.6049 34.4686C58.6179 33.6725 58.4548 32.9939 58.1155 32.4328C57.7892 31.8716 57.339 31.4475 56.7648 31.1604C56.1906 30.8733 55.5642 30.7297 54.8856 30.7297C53.8677 30.7297 52.9998 31.056 52.2821 31.7085C51.5643 32.361 51.1663 33.281 51.088 34.4686H58.6049ZM63.4805 31.6106C63.7807 30.945 64.2374 30.4296 64.8508 30.0642C65.4772 29.6987 66.2406 29.516 67.1411 29.516V30.945H66.7691C65.7773 30.945 64.9813 31.2126 64.381 31.7476C63.7807 32.2827 63.4805 33.1766 63.4805 34.4294V40.3999H62.1102V29.7118H63.4805V31.6106ZM72.4911 40.5565C71.2644 40.5565 70.2595 40.2759 69.4765 39.7148C68.7065 39.1406 68.2759 38.3641 68.1845 37.3853H69.5939C69.6592 37.9856 69.9398 38.475 70.4357 38.8535C70.9446 39.2189 71.6232 39.4016 72.4715 39.4016C73.2154 39.4016 73.7961 39.2254 74.2137 38.873C74.6444 38.5207 74.8597 38.0835 74.8597 37.5615C74.8597 37.1961 74.7422 36.8959 74.5073 36.661C74.2724 36.4261 73.9723 36.2434 73.6069 36.1129C73.2545 35.9694 72.7717 35.8193 72.1583 35.6627C71.3622 35.4539 70.7163 35.2451 70.2204 35.0363C69.7244 34.8275 69.3003 34.5208 68.948 34.1162C68.6087 33.6986 68.439 33.144 68.439 32.4523C68.439 31.9303 68.5956 31.4475 68.9088 31.0038C69.222 30.5601 69.6657 30.2077 70.2399 29.9467C70.8141 29.6857 71.4666 29.5552 72.1975 29.5552C73.3459 29.5552 74.2724 29.8488 74.9771 30.4361C75.6819 31.0103 76.0603 31.8064 76.1125 32.8243H74.7422C74.7031 32.1979 74.4551 31.6954 73.9984 31.317C73.5547 30.9255 72.9413 30.7297 72.1583 30.7297C71.4666 30.7297 70.9055 30.8928 70.4748 31.2191C70.0442 31.5453 69.8288 31.9499 69.8288 32.4328C69.8288 32.8504 69.9528 33.1962 70.2008 33.4703C70.4618 33.7313 70.7815 33.9401 71.16 34.0967C71.5384 34.2402 72.0474 34.4033 72.6868 34.586C73.4568 34.7948 74.0702 34.9971 74.5269 35.1929C74.9837 35.3886 75.3752 35.6757 75.7014 36.0542C76.0277 36.4326 76.1973 36.9351 76.2104 37.5615C76.2104 38.1357 76.0538 38.6512 75.7406 39.1079C75.4274 39.5516 74.9902 39.904 74.429 40.165C73.8679 40.426 73.2219 40.5565 72.4911 40.5565Z" fill="#070E20"/>
</svg>
